<svg width="26" height="20" viewBox="0 0 26 20" fill="none" xmlns="http://www.w3.org/2000/svg">
<path d="M1.33331 2.99998C2.03331 3.58331 2.73331 4.16665 4.24998 4.16665C7.16665 4.16665 7.16665 1.83331 10.0833 1.83331C13.1166 1.83331 12.8833 4.16665 15.9166 4.16665C18.8333 4.16665 18.8333 1.83331 21.75 1.83331C23.2666 1.83331 23.9666 2.41665 24.6666 2.99998M1.33331 9.99998C2.03331 10.5833 2.73331 11.1666 4.24998 11.1666C7.16665 11.1666 7.16665 8.83331 10.0833 8.83331C13.1166 8.83331 12.8833 11.1666 15.9166 11.1666C18.8333 11.1666 18.8333 8.83331 21.75 8.83331C23.2666 8.83331 23.9666 9.41665 24.6666 9.99998M1.33331 17C2.03331 17.5833 2.73331 18.1666 4.24998 18.1666C7.16665 18.1666 7.16665 15.8333 10.0833 15.8333C13.1166 15.8333 12.8833 18.1666 15.9166 18.1666C18.8333 18.1666 18.8333 15.8333 21.75 15.8333C23.2666 15.8333 23.9666 16.4166 24.6666 17" stroke="#DFF6FF" stroke-width="2" stroke-linecap="round" stroke-linejoin="round"/>
</svg>
